<mxfile host="app.diagrams.net" modified="2024-03-11T17:41:50.102Z" agent="Mozilla/5.0 (X11; Linux x86_64) AppleWebKit/537.36 (KHTML, like Gecko) Chrome/122.0.0.0 Safari/537.36" etag="2YVEetrfL0VVXytXIgwK" version="24.0.4" type="device">
  <diagram name="Page-1" id="2-ZF9tzyc4KvnRju0UJz">
    <mxGraphModel dx="847" dy="411" grid="1" gridSize="10" guides="1" tooltips="1" connect="1" arrows="1" fold="1" page="1" pageScale="1" pageWidth="850" pageHeight="1100" math="0" shadow="0">
      <root>
        <mxCell id="0" />
        <mxCell id="1" parent="0" />
        <mxCell id="8xUAQV1gmijpIuZzmbAh-1" value="AWS Cloud" style="points=[[0,0],[0.25,0],[0.5,0],[0.75,0],[1,0],[1,0.25],[1,0.5],[1,0.75],[1,1],[0.75,1],[0.5,1],[0.25,1],[0,1],[0,0.75],[0,0.5],[0,0.25]];outlineConnect=0;gradientColor=none;html=1;whiteSpace=wrap;fontSize=12;fontStyle=0;container=1;pointerEvents=0;collapsible=0;recursiveResize=0;shape=mxgraph.aws4.group;grIcon=mxgraph.aws4.group_aws_cloud_alt;strokeColor=#232F3E;fillColor=none;verticalAlign=top;align=left;spacingLeft=30;fontColor=#232F3E;dashed=0;" parent="1" vertex="1">
          <mxGeometry x="80" y="40" width="680" height="760" as="geometry" />
        </mxCell>
        <mxCell id="8xUAQV1gmijpIuZzmbAh-2" value="Region: ap-southeast-1" style="points=[[0,0],[0.25,0],[0.5,0],[0.75,0],[1,0],[1,0.25],[1,0.5],[1,0.75],[1,1],[0.75,1],[0.5,1],[0.25,1],[0,1],[0,0.75],[0,0.5],[0,0.25]];outlineConnect=0;gradientColor=none;html=1;whiteSpace=wrap;fontSize=12;fontStyle=0;container=1;pointerEvents=0;collapsible=0;recursiveResize=0;shape=mxgraph.aws4.group;grIcon=mxgraph.aws4.group_region;strokeColor=#00A4A6;fillColor=none;verticalAlign=top;align=left;spacingLeft=30;fontColor=#147EBA;dashed=1;" parent="8xUAQV1gmijpIuZzmbAh-1" vertex="1">
          <mxGeometry x="30" y="30" width="590" height="690" as="geometry" />
        </mxCell>
        <mxCell id="8xUAQV1gmijpIuZzmbAh-3" value="AZ:&amp;nbsp; ap-southeast-1a" style="fillColor=none;strokeColor=#147EBA;dashed=1;verticalAlign=top;fontStyle=0;fontColor=#147EBA;whiteSpace=wrap;html=1;" parent="8xUAQV1gmijpIuZzmbAh-2" vertex="1">
          <mxGeometry x="50" y="70" width="330" height="580" as="geometry" />
        </mxCell>
        <mxCell id="8xUAQV1gmijpIuZzmbAh-5" value="Public subnet1: 10.0.1.0/24" style="points=[[0,0],[0.25,0],[0.5,0],[0.75,0],[1,0],[1,0.25],[1,0.5],[1,0.75],[1,1],[0.75,1],[0.5,1],[0.25,1],[0,1],[0,0.75],[0,0.5],[0,0.25]];outlineConnect=0;gradientColor=none;html=1;whiteSpace=wrap;fontSize=12;fontStyle=0;container=1;pointerEvents=0;collapsible=0;recursiveResize=0;shape=mxgraph.aws4.group;grIcon=mxgraph.aws4.group_security_group;grStroke=0;strokeColor=#009900;fillColor=#F2F6E8;verticalAlign=top;align=left;spacingLeft=30;fontColor=#248814;dashed=0;" parent="8xUAQV1gmijpIuZzmbAh-2" vertex="1">
          <mxGeometry x="60" y="130" width="310" height="170" as="geometry" />
        </mxCell>
        <mxCell id="8xUAQV1gmijpIuZzmbAh-13" value="&lt;font face=&quot;Calibri&quot; data-font-src=&quot;https://fonts.googleapis.com/css?family=Calibri&quot;&gt;NAT Gateway&lt;/font&gt;" style="sketch=0;outlineConnect=0;fontColor=#232F3E;gradientColor=none;fillColor=#8C4FFF;strokeColor=none;dashed=0;verticalLabelPosition=bottom;verticalAlign=top;align=center;html=1;fontSize=12;fontStyle=0;aspect=fixed;pointerEvents=1;shape=mxgraph.aws4.nat_gateway;" parent="8xUAQV1gmijpIuZzmbAh-5" vertex="1">
          <mxGeometry x="20" y="30" width="38" height="38" as="geometry" />
        </mxCell>
        <mxCell id="8xUAQV1gmijpIuZzmbAh-20" value="EC2" style="sketch=0;outlineConnect=0;fontColor=#232F3E;gradientColor=none;fillColor=#ED7100;strokeColor=none;dashed=0;verticalLabelPosition=bottom;verticalAlign=top;align=center;html=1;fontSize=12;fontStyle=0;aspect=fixed;pointerEvents=1;shape=mxgraph.aws4.t2_instance;" parent="8xUAQV1gmijpIuZzmbAh-5" vertex="1">
          <mxGeometry x="135" y="100" width="40" height="40" as="geometry" />
        </mxCell>
        <mxCell id="8xUAQV1gmijpIuZzmbAh-17" value="Bastion Host" style="sketch=0;points=[[0,0,0],[0.25,0,0],[0.5,0,0],[0.75,0,0],[1,0,0],[0,1,0],[0.25,1,0],[0.5,1,0],[0.75,1,0],[1,1,0],[0,0.25,0],[0,0.5,0],[0,0.75,0],[1,0.25,0],[1,0.5,0],[1,0.75,0]];outlineConnect=0;fontColor=#232F3E;fillColor=#ED7100;strokeColor=#ffffff;dashed=0;verticalLabelPosition=bottom;verticalAlign=top;align=center;html=1;fontSize=12;fontStyle=0;aspect=fixed;shape=mxgraph.aws4.resourceIcon;resIcon=mxgraph.aws4.ec2;" parent="8xUAQV1gmijpIuZzmbAh-5" vertex="1">
          <mxGeometry x="50" y="100" width="40" height="40" as="geometry" />
        </mxCell>
        <mxCell id="8xUAQV1gmijpIuZzmbAh-6" value="Private subnet1: 10.0.6.0/24" style="points=[[0,0],[0.25,0],[0.5,0],[0.75,0],[1,0],[1,0.25],[1,0.5],[1,0.75],[1,1],[0.75,1],[0.5,1],[0.25,1],[0,1],[0,0.75],[0,0.5],[0,0.25]];outlineConnect=0;gradientColor=none;html=1;whiteSpace=wrap;fontSize=12;fontStyle=0;container=1;pointerEvents=0;collapsible=0;recursiveResize=0;shape=mxgraph.aws4.group;grIcon=mxgraph.aws4.group_security_group;grStroke=0;strokeColor=#00A4A6;fillColor=#E6F6F7;verticalAlign=top;align=left;spacingLeft=30;fontColor=#147EBA;dashed=0;" parent="8xUAQV1gmijpIuZzmbAh-2" vertex="1">
          <mxGeometry x="60" y="330" width="310" height="160" as="geometry" />
        </mxCell>
        <mxCell id="8xUAQV1gmijpIuZzmbAh-21" value="EC2" style="sketch=0;outlineConnect=0;fontColor=#232F3E;gradientColor=none;fillColor=#ED7100;strokeColor=none;dashed=0;verticalLabelPosition=bottom;verticalAlign=top;align=center;html=1;fontSize=12;fontStyle=0;aspect=fixed;pointerEvents=1;shape=mxgraph.aws4.t2_instance;" parent="8xUAQV1gmijpIuZzmbAh-6" vertex="1">
          <mxGeometry x="135" y="80" width="40" height="40" as="geometry" />
        </mxCell>
        <mxCell id="8xUAQV1gmijpIuZzmbAh-7" value="Private subnet2: 10.0.11.0/24" style="points=[[0,0],[0.25,0],[0.5,0],[0.75,0],[1,0],[1,0.25],[1,0.5],[1,0.75],[1,1],[0.75,1],[0.5,1],[0.25,1],[0,1],[0,0.75],[0,0.5],[0,0.25]];outlineConnect=0;gradientColor=none;html=1;whiteSpace=wrap;fontSize=12;fontStyle=0;container=1;pointerEvents=0;collapsible=0;recursiveResize=0;shape=mxgraph.aws4.group;grIcon=mxgraph.aws4.group_security_group;grStroke=0;strokeColor=#00A4A6;fillColor=#E6F6F7;verticalAlign=top;align=left;spacingLeft=30;fontColor=#147EBA;dashed=0;" parent="8xUAQV1gmijpIuZzmbAh-2" vertex="1">
          <mxGeometry x="60" y="510" width="310" height="130" as="geometry" />
        </mxCell>
        <mxCell id="8xUAQV1gmijpIuZzmbAh-9" value="Application&amp;nbsp;&lt;div&gt;Load Balancer&lt;/div&gt;" style="sketch=0;outlineConnect=0;fontColor=#232F3E;gradientColor=none;fillColor=#8C4FFF;strokeColor=none;dashed=0;verticalLabelPosition=bottom;verticalAlign=top;align=center;html=1;fontSize=12;fontStyle=0;aspect=fixed;pointerEvents=1;shape=mxgraph.aws4.application_load_balancer;" parent="8xUAQV1gmijpIuZzmbAh-2" vertex="1">
          <mxGeometry x="438.94" y="130" width="40" height="40" as="geometry" />
        </mxCell>
        <mxCell id="8xUAQV1gmijpIuZzmbAh-11" value="Route Table" style="sketch=0;outlineConnect=0;fontColor=#232F3E;gradientColor=none;fillColor=#8C4FFF;strokeColor=none;dashed=0;verticalLabelPosition=bottom;verticalAlign=top;align=center;html=1;fontSize=12;fontStyle=0;aspect=fixed;pointerEvents=1;shape=mxgraph.aws4.route_table;" parent="8xUAQV1gmijpIuZzmbAh-2" vertex="1">
          <mxGeometry x="437.88" y="420" width="41.06" height="40" as="geometry" />
        </mxCell>
        <mxCell id="8xUAQV1gmijpIuZzmbAh-12" value="Route Table" style="sketch=0;outlineConnect=0;fontColor=#232F3E;gradientColor=none;fillColor=#8C4FFF;strokeColor=none;dashed=0;verticalLabelPosition=bottom;verticalAlign=top;align=center;html=1;fontSize=12;fontStyle=0;aspect=fixed;pointerEvents=1;shape=mxgraph.aws4.route_table;" parent="8xUAQV1gmijpIuZzmbAh-2" vertex="1">
          <mxGeometry x="438.94" y="230" width="41.06" height="40" as="geometry" />
        </mxCell>
        <mxCell id="8xUAQV1gmijpIuZzmbAh-14" value="RDS" style="sketch=0;outlineConnect=0;fontColor=#232F3E;gradientColor=none;fillColor=#C925D1;strokeColor=none;dashed=0;verticalLabelPosition=bottom;verticalAlign=top;align=center;html=1;fontSize=12;fontStyle=0;aspect=fixed;pointerEvents=1;shape=mxgraph.aws4.rds_postgresql_instance;" parent="8xUAQV1gmijpIuZzmbAh-2" vertex="1">
          <mxGeometry x="195" y="570" width="40" height="40" as="geometry" />
        </mxCell>
        <mxCell id="8xUAQV1gmijpIuZzmbAh-33" value="&lt;span style=&quot;font-family: Calibri; font-size: 14px; font-weight: normal;&quot;&gt;Application Tier&lt;/span&gt;" style="text;strokeColor=none;fillColor=none;html=1;fontSize=24;fontStyle=1;verticalAlign=middle;align=center;rotation=-90;" parent="8xUAQV1gmijpIuZzmbAh-2" vertex="1">
          <mxGeometry x="-50" y="395" width="150" height="40" as="geometry" />
        </mxCell>
        <mxCell id="8xUAQV1gmijpIuZzmbAh-34" value="&lt;span style=&quot;font-family: Calibri; font-size: 14px; font-weight: normal;&quot;&gt;Web Tier&lt;/span&gt;" style="text;strokeColor=none;fillColor=none;html=1;fontSize=24;fontStyle=1;verticalAlign=middle;align=center;rotation=-90;" parent="8xUAQV1gmijpIuZzmbAh-2" vertex="1">
          <mxGeometry x="-60" y="195" width="170" height="40" as="geometry" />
        </mxCell>
        <mxCell id="8xUAQV1gmijpIuZzmbAh-35" value="&lt;span style=&quot;font-family: Calibri; font-size: 14px; font-weight: normal;&quot;&gt;Database Tier&lt;/span&gt;" style="text;strokeColor=none;fillColor=none;html=1;fontSize=24;fontStyle=1;verticalAlign=middle;align=center;rotation=-90;" parent="8xUAQV1gmijpIuZzmbAh-2" vertex="1">
          <mxGeometry x="-40" y="560" width="130" height="40" as="geometry" />
        </mxCell>
        <mxCell id="Dg76yOd6FbmSH6TMorVK-1" value="lab-vpc: 10.0.0.0/16" style="points=[[0,0],[0.25,0],[0.5,0],[0.75,0],[1,0],[1,0.25],[1,0.5],[1,0.75],[1,1],[0.75,1],[0.5,1],[0.25,1],[0,1],[0,0.75],[0,0.5],[0,0.25]];outlineConnect=0;gradientColor=none;html=1;whiteSpace=wrap;fontSize=12;fontStyle=0;container=1;pointerEvents=0;collapsible=0;recursiveResize=0;shape=mxgraph.aws4.group;grIcon=mxgraph.aws4.group_vpc2;strokeColor=#009900;fillColor=none;verticalAlign=top;align=left;spacingLeft=30;fontColor=#AAB7B8;dashed=0;" vertex="1" parent="8xUAQV1gmijpIuZzmbAh-2">
          <mxGeometry x="10" y="100" width="580" height="570" as="geometry" />
        </mxCell>
        <mxCell id="8xUAQV1gmijpIuZzmbAh-10" value="Application&lt;div&gt;Load Balancer&lt;/div&gt;" style="sketch=0;outlineConnect=0;fontColor=#232F3E;gradientColor=none;fillColor=#8C4FFF;strokeColor=none;dashed=0;verticalLabelPosition=bottom;verticalAlign=top;align=center;html=1;fontSize=12;fontStyle=0;aspect=fixed;pointerEvents=1;shape=mxgraph.aws4.application_load_balancer;" parent="Dg76yOd6FbmSH6TMorVK-1" vertex="1">
          <mxGeometry x="428.94" y="225" width="40" height="40" as="geometry" />
        </mxCell>
        <mxCell id="8xUAQV1gmijpIuZzmbAh-8" value="Internet&amp;nbsp;&lt;div&gt;Gateway&lt;/div&gt;" style="sketch=0;outlineConnect=0;fontColor=#232F3E;gradientColor=none;fillColor=#8C4FFF;strokeColor=none;dashed=0;verticalLabelPosition=bottom;verticalAlign=top;align=center;html=1;fontSize=12;fontStyle=0;aspect=fixed;pointerEvents=1;shape=mxgraph.aws4.internet_gateway;" parent="8xUAQV1gmijpIuZzmbAh-1" vertex="1">
          <mxGeometry x="600" y="355" width="40" height="40" as="geometry" />
        </mxCell>
        <mxCell id="Dg76yOd6FbmSH6TMorVK-2" value="" style="edgeStyle=orthogonalEdgeStyle;html=1;endArrow=block;elbow=vertical;startArrow=block;startFill=1;endFill=1;strokeColor=#545B64;rounded=0;" edge="1" parent="8xUAQV1gmijpIuZzmbAh-1" source="8xUAQV1gmijpIuZzmbAh-9" target="8xUAQV1gmijpIuZzmbAh-8">
          <mxGeometry width="100" relative="1" as="geometry">
            <mxPoint x="290" y="330" as="sourcePoint" />
            <mxPoint x="390" y="330" as="targetPoint" />
          </mxGeometry>
        </mxCell>
        <mxCell id="Dg76yOd6FbmSH6TMorVK-9" value="" style="edgeStyle=orthogonalEdgeStyle;html=1;endArrow=block;elbow=vertical;startArrow=block;startFill=1;endFill=1;strokeColor=#545B64;rounded=0;" edge="1" parent="8xUAQV1gmijpIuZzmbAh-1" source="8xUAQV1gmijpIuZzmbAh-13" target="8xUAQV1gmijpIuZzmbAh-8">
          <mxGeometry width="100" relative="1" as="geometry">
            <mxPoint x="290" y="240" as="sourcePoint" />
            <mxPoint x="620" y="240" as="targetPoint" />
            <Array as="points">
              <mxPoint x="260" y="209" />
              <mxPoint x="260" y="150" />
              <mxPoint x="580" y="150" />
              <mxPoint x="580" y="375" />
            </Array>
          </mxGeometry>
        </mxCell>
        <mxCell id="8xUAQV1gmijpIuZzmbAh-30" value="backend-sg" style="fillColor=none;strokeColor=#DD3522;verticalAlign=top;fontStyle=0;fontColor=#DD3522;whiteSpace=wrap;html=1;" parent="1" vertex="1">
          <mxGeometry x="281" y="467" width="340" height="93" as="geometry" />
        </mxCell>
        <mxCell id="8xUAQV1gmijpIuZzmbAh-31" value="database-sg" style="fillColor=none;strokeColor=#DD3522;verticalAlign=top;fontStyle=0;fontColor=#DD3522;whiteSpace=wrap;html=1;" parent="1" vertex="1">
          <mxGeometry x="282" y="618" width="340" height="92" as="geometry" />
        </mxCell>
        <mxCell id="8xUAQV1gmijpIuZzmbAh-29" value="frontend-sg" style="fillColor=none;strokeColor=#DD3522;verticalAlign=top;fontStyle=0;fontColor=#DD3522;whiteSpace=wrap;html=1;" parent="1" vertex="1">
          <mxGeometry x="280" y="280" width="340" height="80" as="geometry" />
        </mxCell>
        <mxCell id="Dg76yOd6FbmSH6TMorVK-3" value="" style="edgeStyle=orthogonalEdgeStyle;html=1;endArrow=block;elbow=vertical;startArrow=block;startFill=1;endFill=1;strokeColor=#545B64;rounded=0;exitX=0.848;exitY=0.99;exitDx=0;exitDy=0;exitPerimeter=0;" edge="1" parent="1" source="8xUAQV1gmijpIuZzmbAh-29" target="8xUAQV1gmijpIuZzmbAh-10">
          <mxGeometry width="100" relative="1" as="geometry">
            <mxPoint x="370" y="370" as="sourcePoint" />
            <mxPoint x="470" y="370" as="targetPoint" />
          </mxGeometry>
        </mxCell>
        <mxCell id="Dg76yOd6FbmSH6TMorVK-4" value="" style="edgeStyle=orthogonalEdgeStyle;html=1;endArrow=block;elbow=vertical;startArrow=block;startFill=1;endFill=1;strokeColor=#545B64;rounded=0;exitX=0.105;exitY=0.004;exitDx=0;exitDy=0;exitPerimeter=0;entryX=0.84;entryY=1.017;entryDx=0;entryDy=0;entryPerimeter=0;" edge="1" parent="1" source="8xUAQV1gmijpIuZzmbAh-31" target="8xUAQV1gmijpIuZzmbAh-30">
          <mxGeometry width="100" relative="1" as="geometry">
            <mxPoint x="370" y="470" as="sourcePoint" />
            <mxPoint x="470" y="470" as="targetPoint" />
            <Array as="points">
              <mxPoint x="318" y="606" />
              <mxPoint x="567" y="606" />
            </Array>
          </mxGeometry>
        </mxCell>
        <mxCell id="Dg76yOd6FbmSH6TMorVK-6" value="" style="edgeStyle=orthogonalEdgeStyle;html=1;endArrow=block;elbow=vertical;startArrow=block;startFill=1;endFill=1;strokeColor=#545B64;rounded=0;exitX=0.136;exitY=0.002;exitDx=0;exitDy=0;exitPerimeter=0;" edge="1" parent="1" source="8xUAQV1gmijpIuZzmbAh-30">
          <mxGeometry width="100" relative="1" as="geometry">
            <mxPoint x="370" y="370" as="sourcePoint" />
            <mxPoint x="239" y="361" as="targetPoint" />
            <Array as="points">
              <mxPoint x="327" y="430" />
              <mxPoint x="240" y="430" />
            </Array>
          </mxGeometry>
        </mxCell>
        <mxCell id="Dg76yOd6FbmSH6TMorVK-7" value="" style="edgeStyle=orthogonalEdgeStyle;html=1;endArrow=block;elbow=vertical;startArrow=block;startFill=1;endFill=1;strokeColor=#545B64;rounded=0;exitX=0.099;exitY=0.002;exitDx=0;exitDy=0;exitPerimeter=0;" edge="1" parent="1" source="8xUAQV1gmijpIuZzmbAh-30">
          <mxGeometry width="100" relative="1" as="geometry">
            <mxPoint x="370" y="370" as="sourcePoint" />
            <mxPoint x="200" y="290" as="targetPoint" />
            <Array as="points">
              <mxPoint x="315" y="440" />
              <mxPoint x="200" y="440" />
            </Array>
          </mxGeometry>
        </mxCell>
        <mxCell id="Dg76yOd6FbmSH6TMorVK-8" value="" style="edgeStyle=orthogonalEdgeStyle;html=1;endArrow=block;elbow=vertical;startArrow=block;startFill=1;endFill=1;strokeColor=#545B64;rounded=0;exitX=0.167;exitY=0.002;exitDx=0;exitDy=0;exitPerimeter=0;" edge="1" parent="1" source="8xUAQV1gmijpIuZzmbAh-30" target="8xUAQV1gmijpIuZzmbAh-10">
          <mxGeometry width="100" relative="1" as="geometry">
            <mxPoint x="370" y="370" as="sourcePoint" />
            <mxPoint x="507" y="415" as="targetPoint" />
            <Array as="points">
              <mxPoint x="338" y="415" />
            </Array>
          </mxGeometry>
        </mxCell>
        <mxCell id="Dg76yOd6FbmSH6TMorVK-10" value="" style="edgeStyle=orthogonalEdgeStyle;html=1;endArrow=block;elbow=vertical;startArrow=block;startFill=1;endFill=1;strokeColor=#545B64;rounded=0;exitX=0.139;exitY=-0.04;exitDx=0;exitDy=0;exitPerimeter=0;" edge="1" parent="1" source="8xUAQV1gmijpIuZzmbAh-29" target="8xUAQV1gmijpIuZzmbAh-9">
          <mxGeometry width="100" relative="1" as="geometry">
            <mxPoint x="370" y="370" as="sourcePoint" />
            <mxPoint x="470" y="370" as="targetPoint" />
            <Array as="points">
              <mxPoint x="327" y="260" />
              <mxPoint x="350" y="260" />
              <mxPoint x="350" y="220" />
            </Array>
          </mxGeometry>
        </mxCell>
      </root>
    </mxGraphModel>
  </diagram>
</mxfile>
